<svg xmlns="http://www.w3.org/2000/svg" width="51" height="51"><path d="M25.717 50.019c-13.81 0-24.742-10.99-24.745-24.77C.968 11.47 12.632.385 26.309.663 38.062.905 50.627 10.13 50.587 25.39c-.04 15.259-12.493 24.887-24.87 24.63Zm-5.384-28.417a7.625 7.625 0 0 1 .259 5.805c-.52 1.587-.983 3.19-.951 4.88.057 3.109 1.733 5.47 4.407 6.253 3.183.929 5.742-.022 7.59-2.808a11.086 11.086 0 0 0 1.324-2.916c1.267-4.18 1.328-8.424.75-12.715-.34-2.547-1.134-4.905-3.161-6.598-2.121-1.769-4.569-2.626-7.29-1.522-2.72 1.104-3.645 3.433-3.645 6.184 0 .864-.377 1.429-.786 2.097-1.335 2.144-1.795 4.402-.625 6.788.51-1.836.628-3.798 2.128-5.448Z" fill="#2E555E"></path></svg>